<svg id="LOGO" xmlns="http://www.w3.org/2000/svg" viewBox="0 0 343.63 306.19"><defs><style>.cls-1{font-size:26.05px;font-family:Montserrat-Light, Montserrat;font-weight:300;letter-spacing:0.03em;}.cls-1,.cls-10{fill:#efb920;}.cls-2{letter-spacing:0.01em;}.cls-3{letter-spacing:0.01em;}.cls-4{letter-spacing:0em;}.cls-5{letter-spacing:0.04em;}.cls-6{letter-spacing:-0.01em;}.cls-7{font-size:48.99px;fill:#041c28;font-family:Montserrat-Bold, Montserrat;font-weight:700;letter-spacing:0.03em;}.cls-8{letter-spacing:0.01em;}.cls-9{letter-spacing:0.02em;}</style></defs><g id="CLIP-CONTAINER"><text id="Home_Solutions" data-name="Home Solutions" class="cls-1" transform="translate(0 299.39)">Own the <tspan class="cls-2" x="123.89" y="0">F</tspan><tspan x="140.48" y="0">utu</tspan><tspan class="cls-3" x="187.67" y="0">r</tspan><tspan x="198.22" y="0">e, </tspan><tspan class="cls-4" x="227.64" y="0">V</tspan><tspan x="245.64" y="0">i</tspan><tspan class="cls-5" x="253.09" y="0">r</tspan><tspan x="264.4" y="0">tuall</tspan><tspan class="cls-6" x="324.25" y="0">y</tspan><tspan x="337.77" y="0">.</tspan></text><text id="Real_Estate" data-name="Real Estate" class="cls-7" transform="translate(48.45 265.96)">ETHSta<tspan class="cls-8" x="192.89" y="0">t</tspan><tspan class="cls-9" x="214.6" y="0">e</tspan></text><path id="CUSTOM-Form1" class="cls-10" d="M234,220.94l11.25-8.21v92.21H234Zm73.27-26.69V150.37L234,96.91v96l-12.51,9.13V150.4l-83,60.58v94h11.25V216.7l60.51-44.16v37.73l-35.88,26.18v68.49h47.13V230.07l-11.25,8.21v55.41H185.6V242.17l59.64-43.52v-79.6l50.76,37V186l-34.87-25.45V304.94h11.25V182.73l77.9,56.85v54.11h-43V222.26L296,214.05v90.89h65.53V233.86Z" transform="translate(-78.19 -96.91)"/></g></svg>