<svg id="LOGO" xmlns="http://www.w3.org/2000/svg" viewBox="0 0 500 500"><defs><style>.cls-1{font-size:20.32px;letter-spacing:0.03em;}.cls-1,.cls-5{font-family:Gotham-Black, Gotham;font-weight:800;}.cls-2{letter-spacing:0.01em;}.cls-3{letter-spacing:0.02em;}.cls-4{letter-spacing:-0.06em;}.cls-5{font-size:56.72px;letter-spacing:0.03em;}.cls-6{letter-spacing:0.02em;}.cls-7{letter-spacing:0.02em;}.cls-8{letter-spacing:0.02em;}.cls-9{letter-spacing:0.01em;}</style></defs><g id="CLIP-CONTAINER"><path id="CUSTOM-Form1" d="M87.7,261.79,94.33,257v54.32H87.7Zm43.15-15.72V220.23L87.7,188.73v56.56l-7.37,5.38V220.24L31.44,255.92v55.35h6.63v-52l35.63-26V255.5L52.57,270.92v40.35H80.33V267.16L73.7,272v32.64H59.2V274.29l35.13-25.63V201.78l29.89,21.81v17.64l-20.54-15v85h6.63v-72l45.88,33.48v31.87H130.85V262.57l-6.63-4.84v53.54h38.6V269.4Z"/></g><text id="Home_Solutions" data-name="Home Solutions" class="cls-1" transform="matrix(1, -0.01, 0.01, 1, 188.91, 283.1)">Own the Futu<tspan class="cls-2" x="147.2" y="0">re</tspan><tspan class="cls-3" x="168.81" y="0">, </tspan><tspan class="cls-2" x="181.69" y="0">V</tspan><tspan x="197.44" y="0">irtuall</tspan><tspan class="cls-4" x="261.85" y="0">y</tspan><tspan class="cls-3" x="273.34" y="0">.</tspan></text><text id="Real_Estate" data-name="Real Estate" class="cls-5" transform="translate(184.66 259.96) rotate(-0.25)">ETH<tspan class="cls-6" x="122.73" y="0">S</tspan><tspan class="cls-7" x="160.56" y="0">t</tspan><tspan class="cls-8" x="186.42" y="0">a</tspan><tspan class="cls-9" x="221.53" y="0">t</tspan><tspan x="246.54" y="0">e</tspan></text></svg>